<?xml version="1.0" standalone="no"?>
<!DOCTYPE svg PUBLIC "-//W3C//DTD SVG 20010904//EN"
 "http://www.w3.org/TR/2001/REC-SVG-20010904/DTD/svg10.dtd">
<svg version="1.0" xmlns="http://www.w3.org/2000/svg"
 width="1604.000000pt" height="1604.000000pt" viewBox="0 0 1604.000000 1604.000000"
 preserveAspectRatio="xMidYMid meet">
<metadata>
Created by potrace 1.11, written by Peter Selinger 2001-2013
</metadata>
<g transform="translate(0.000000,1604.000000) scale(0.100000,-0.100000)"
fill="#000000" stroke="none">
<path d="M4205 16030 c1937 -3 3430 -9 3355 -13 -644 -39 -1308 -175 -1950
-400 -992 -349 -1929 -938 -2675 -1682 -697 -695 -1198 -1436 -1591 -2358
-117 -272 -259 -697 -333 -993 -321 -1280 -297 -2615 71 -3849 331 -1114 908
-2113 1694 -2936 319 -334 626 -604 986 -868 l128 -93 0 -909 0 -909 775 0
775 0 0 -510 0 -510 2590 0 2590 0 0 510 0 510 775 0 775 0 0 909 0 909 128
93 c360 264 667 534 986 868 786 823 1363 1822 1694 2936 312 1046 379 2209
191 3280 -72 405 -136 663 -256 1030 -284 869 -737 1686 -1317 2379 -1213
1449 -2921 2365 -4781 2566 -99 10 -241 22 -315 27 -75 4 1413 10 3345 13
2218 3 830 5 -3825 5 -4668 0 -6045 -2 -3815 -5z m4255 -1055 c1478 -109 2849
-724 3899 -1750 632 -618 1137 -1382 1451 -2195 214 -556 339 -1098 402 -1735
17 -173 17 -847 0 -1020 -52 -524 -141 -962 -289 -1410 -319 -968 -819 -1775
-1552 -2505 l-196 -195 -3 755 -2 755 22 30 c324 438 598 972 767 1499 478
1484 259 3108 -597 4416 -384 587 -891 1097 -1477 1485 -596 395 -1283 666
-1982 784 -349 59 -442 66 -873 66 -317 0 -425 -4 -545 -18 -754 -90 -1411
-304 -2036 -663 -696 -399 -1308 -977 -1751 -1654 -240 -367 -447 -794 -581
-1200 -347 -1048 -352 -2173 -16 -3216 169 -527 443 -1061 767 -1499 l22 -30
-2 -755 -3 -755 -196 195 c-503 501 -874 1007 -1181 1611 -368 724 -576 1450
-660 2304 -17 173 -17 847 0 1020 53 534 139 954 289 1410 250 761 603 1406
1102 2015 638 778 1442 1380 2371 1775 898 382 1896 550 2850 480z m-145
-1546 c1176 -77 2251 -573 3062 -1413 716 -741 1157 -1682 1279 -2726 21 -186
30 -636 15 -830 -117 -1534 -941 -2875 -2251 -3665 -167 -101 -491 -262 -665
-330 -1113 -440 -2337 -440 -3450 0 -174 68 -498 229 -665 330 -1310 790
-2134 2131 -2251 3665 -15 194 -6 644 15 830 68 581 222 1096 481 1605 556
1095 1520 1923 2688 2309 557 184 1167 263 1742 225z m-3595 -8625 c708 -588
1572 -981 2483 -1129 310 -50 437 -59 827 -59 390 0 517 9 827 59 1003 163
1930 613 2681 1303 l112 103 0 -665 0 -665 -92 -64 c-233 -162 -468 -302 -745
-442 -103 -52 -194 -100 -201 -106 -58 -48 -648 -267 -914 -339 l-118 -32 0
-869 0 -869 -1550 0 -1550 0 0 873 0 873 -97 28 c-693 199 -1325 496 -1880
883 l-93 64 0 665 0 665 113 -103 c61 -57 150 -135 197 -174z m-27 -2449 c232
-119 413 -203 610 -282 l137 -55 0 -234 0 -234 -515 0 -515 0 0 480 0 480 41
-26 c22 -14 132 -72 242 -129z m6957 -325 l0 -480 -515 0 -515 0 0 234 0 234
138 55 c250 100 727 331 849 411 21 14 39 25 41 25 1 1 2 -215 2 -479z"/>
</g>
</svg>
