<svg id="Elements" xmlns="http://www.w3.org/2000/svg" xmlns:xlink="http://www.w3.org/1999/xlink" viewBox="0 0 68.03 68.03"><defs><style>.cls-1{fill:none;}.cls-2{clip-path:url(#clip-path);}.cls-3{fill:#826a3e;}.cls-4{clip-path:url(#clip-path-2);}.cls-5{fill:#111;}.cls-6{clip-path:url(#clip-path-3);}</style><clipPath id="clip-path"><polygon id="SVGID" class="cls-1" points="31.18 31.18 31.18 11.34 11.34 11.34 11.34 56.69 22.68 56.69 34.02 34.02 31.18 31.18"/></clipPath><clipPath id="clip-path-2"><polygon id="SVGID-2" data-name="SVGID" class="cls-1" points="34.02 34.02 36.85 36.85 36.85 56.69 56.69 56.69 56.69 11.34 45.35 11.34 34.02 34.02"/></clipPath><clipPath id="clip-path-3"><path class="cls-1" d="M34,11.34A22.68,22.68,0,1,0,56.69,34,22.67,22.67,0,0,0,34,11.34Zm0,34A11.34,11.34,0,1,1,45.35,34,11.33,11.33,0,0,1,34,45.35Z"/></clipPath></defs><g id="Color"><g id="Ideograph"><g class="cls-2"><path class="cls-3" d="M34,17A17,17,0,1,1,17,34,17,17,0,0,1,34,17m0-5.67A22.68,22.68,0,1,0,56.69,34,22.67,22.67,0,0,0,34,11.34Z"/></g><g class="cls-4"><path class="cls-5" d="M34,17A17,17,0,1,1,17,34,17,17,0,0,1,34,17m0-5.67A22.68,22.68,0,1,0,56.69,34,22.67,22.67,0,0,0,34,11.34Z"/></g><g class="cls-6"><rect class="cls-5" x="34.02" y="36.85" width="5.67" height="19.84"/><rect class="cls-3" x="28.35" y="11.34" width="5.67" height="19.84"/></g></g></g></svg>