<svg id="Elements" xmlns="http://www.w3.org/2000/svg" xmlns:xlink="http://www.w3.org/1999/xlink" viewBox="0 0 32 32">
  <defs>
    <style>
      .cls-1 {
        fill: none;
      }

      .cls-2 {
        clip-path: url(#clip-path);
      }

      .cls-3 {
        fill: #826a3e;
      }

      .cls-4 {
        clip-path: url(#clip-path-2);
      }

      .cls-5 {
        fill: #111;
      }

      .cls-6 {
        clip-path: url(#clip-path-3);
      }
    </style>
    <clipPath id="clip-path">
      <polygon id="SVGID" class="cls-1" points="14 14 14 0 0 0 0 32 8 32 16 16 14 14"/>
    </clipPath>
    <clipPath id="clip-path-2">
      <polygon id="SVGID-2" data-name="SVGID" class="cls-1" points="16 16 18 18 18 32 32 32 32 0 24 0 16 16"/>
    </clipPath>
    <clipPath id="clip-path-3">
      <path class="cls-1" d="M16,0A16,16,0,1,0,32,16,16,16,0,0,0,16,0Zm0,24a8,8,0,1,1,8-8A8,8,0,0,1,16,24Z"/>
    </clipPath>
  </defs>
  <g id="Color">
    <g id="Ideograph">
      <g>
        <g class="cls-2">
          <path class="cls-3" d="M16,4A12,12,0,1,1,4,16,12,12,0,0,1,16,4m0-4A16,16,0,1,0,32,16,16,16,0,0,0,16,0Z"/>
        </g>
        <g class="cls-4">
          <path class="cls-5" d="M16,4A12,12,0,1,1,4,16,12,12,0,0,1,16,4m0-4A16,16,0,1,0,32,16,16,16,0,0,0,16,0Z"/>
        </g>
        <g class="cls-6">
          <g>
            <rect class="cls-5" x="16" y="18" width="4" height="14"/>
            <rect class="cls-3" x="12" width="4" height="14"/>
          </g>
        </g>
      </g>
    </g>
  </g>
</svg>
