<?xml version="1.0" encoding="utf-8"?>
<!-- Generator: Adobe Illustrator 24.2.2, SVG Export Plug-In . SVG Version: 6.00 Build 0)  -->
<svg version="1.1" id="Elements" xmlns="http://www.w3.org/2000/svg" xmlns:xlink="http://www.w3.org/1999/xlink" x="0px" y="0px"
	 viewBox="0 0 320 64" style="enable-background:new 0 0 320 64;" xml:space="preserve">
<style type="text/css">
	.st0{fill:#826A3E;}
	.st1{fill:#111111;}
	.st2{clip-path:url(#SVGID_2_);}
	.st3{clip-path:url(#SVGID_4_);}
	.st4{clip-path:url(#SVGID_6_);}
</style>
<g id="Color">
	<g id="Combined">
		<g>
			<path class="st0" d="M212.9,40.9c-2.8-1.5-4.6-4.4-4.6-7.6c0-1.6,0.4-3.1,1.2-4.5c0.8-1.3,2-2.4,3.3-3.1c1.5-0.8,3.1-1.2,4.8-1.1
				c3.1,0,5.4,1,7,2.9l-2.4,2.3c-1.1-1.3-2.7-2-4.4-2c-1,0-2,0.2-2.9,0.7c-0.8,0.5-1.5,1.2-2,2c-0.5,0.9-0.7,1.9-0.7,2.9
				c0,1,0.2,2,0.7,2.9c0.5,0.8,1.2,1.5,2,2c0.9,0.5,1.9,0.7,2.9,0.7c1.7,0,3.3-0.7,4.4-2l2.4,2.3c-1.8,2-4.3,3-7,2.9
				C216,42.1,214.3,41.7,212.9,40.9z"/>
			<path class="st0" d="M228.6,24.8h3.7v13.9h8.7v3h-12.5V24.8z"/>
			<path class="st0" d="M247.3,40.9c-4.2-2.3-5.8-7.6-3.5-11.9c0-0.1,0.1-0.2,0.1-0.3c0.8-1.3,2-2.4,3.4-3.1c3-1.5,6.6-1.5,9.6,0
				c4.2,2.3,5.8,7.6,3.5,11.8c0,0.1-0.1,0.2-0.1,0.3c-0.8,1.3-2,2.4-3.4,3.1C253.9,42.4,250.3,42.4,247.3,40.9L247.3,40.9z
				 M254.9,38.1c0.8-0.5,1.5-1.2,2-2c0.9-1.8,0.9-4,0-5.8c-0.5-0.8-1.2-1.5-2-2c-0.9-0.5-1.9-0.7-2.9-0.7c-1,0-2,0.2-2.8,0.7
				c-0.8,0.5-1.5,1.2-2,2c-0.5,0.9-0.7,1.9-0.7,2.9c0,1,0.2,2,0.7,2.9c0.5,0.8,1.2,1.5,2,2c0.9,0.5,1.8,0.7,2.8,0.7
				C253.1,38.9,254.1,38.6,254.9,38.1L254.9,38.1z"/>
			<path class="st0" d="M267.6,40c-1.4-1.5-2.1-3.5-2-5.5v-9.7h3.7v9.6c-0.1,1.2,0.3,2.4,1,3.3c0.8,0.8,1.9,1.2,3,1.2
				c1.1,0.1,2.2-0.3,2.9-1.2c0.7-1,1.1-2.2,1-3.4v-9.6h3.7v9.7c0.1,2-0.6,4-2,5.5C275.7,42.7,271,42.7,267.6,40z"/>
			<path class="st0" d="M286.6,24.8h7.7c1.7,0,3.4,0.3,5,1c1.4,0.6,2.5,1.7,3.3,3c0.8,1.4,1.2,2.9,1.2,4.5c0,1.6-0.4,3.1-1.2,4.5
				c-0.8,1.3-1.9,2.4-3.3,3c-1.6,0.7-3.3,1-5,1h-7.7V24.8z M294.2,38.7c1.6,0.1,3.1-0.4,4.3-1.4c1.1-1.1,1.6-2.5,1.5-4
				c0.1-1.5-0.5-3-1.5-4c-1.2-1-2.7-1.5-4.3-1.4h-3.8v10.9H294.2z"/>
		</g>
		<g>
			<path class="st1" d="M69.5,40.7c-1.7-0.9-3-2.2-4-3.8c-1.9-3.4-1.9-7.5,0-10.9c1-1.6,2.3-2.9,4-3.8c3.6-1.8,7.8-1.8,11.4,0
				c1.7,0.9,3,2.2,4,3.8c1,1.7,1.5,3.6,1.4,5.5c0,1.9-0.5,3.8-1.4,5.5c-1,1.6-2.3,2.9-4,3.8C77.3,42.5,73.1,42.5,69.5,40.7z
				 M79,37.7c1.1-0.6,2-1.5,2.6-2.6c1.3-2.3,1.3-5.2,0-7.5c-0.6-1.1-1.5-2-2.6-2.6c-2.3-1.2-5.1-1.2-7.5,0c-1.1,0.6-2,1.5-2.6,2.6
				c-1.3,2.3-1.3,5.2,0,7.5c0.6,1.1,1.5,2,2.6,2.6C73.9,39,76.7,39,79,37.7L79,37.7z"/>
			<path class="st1" d="M103.8,26.8c1.2,0.7,2.2,1.6,2.9,2.8c0.7,1.3,1,2.8,1,4.2c0,1.5-0.3,2.9-1,4.3c-0.7,1.2-1.7,2.2-2.9,2.9
				c-1.3,0.7-2.7,1-4.1,1c-1.9,0.1-3.8-0.7-5.1-2.1v7.7h-3.7V25.9h3.5V28c0.6-0.7,1.4-1.3,2.3-1.7c1-0.4,2-0.6,3-0.6
				C101.1,25.7,102.5,26.1,103.8,26.8z M102.6,37.4c0.9-1,1.4-2.3,1.3-3.6c0.1-1.3-0.4-2.6-1.3-3.6c-0.9-0.9-2.1-1.4-3.4-1.4
				c-0.8,0-1.7,0.2-2.4,0.6c-0.7,0.4-1.3,1-1.7,1.7c-0.8,1.6-0.8,3.6,0,5.2c0.4,0.7,1,1.3,1.7,1.7c0.7,0.4,1.6,0.6,2.4,0.6
				C100.5,38.8,101.7,38.3,102.6,37.4z"/>
			<path class="st1" d="M121.4,40.9c-0.5,0.4-1,0.6-1.6,0.8c-0.7,0.2-1.3,0.3-2,0.3c-1.5,0.1-2.9-0.4-4-1.4c-1-1.1-1.5-2.5-1.4-4V29
				h-2.6v-3h2.6v-3.6h3.7V26h4.2v3h-4.2v7.5c0,0.6,0.2,1.3,0.6,1.8c0.4,0.4,1,0.6,1.6,0.6c0.7,0,1.5-0.2,2.1-0.7L121.4,40.9z"/>
			<path class="st1" d="M127.5,40.9c-1.2-0.7-2.3-1.7-3-2.9c-1.4-2.6-1.4-5.8,0-8.4c0.7-1.2,1.8-2.2,3-2.9c2.7-1.4,5.9-1.4,8.7,0
				c1.2,0.7,2.3,1.7,3,2.9c1.4,2.6,1.4,5.8,0,8.4c-0.7,1.2-1.7,2.2-3,2.9C133.4,42.3,130.2,42.3,127.5,40.9z M135.2,37.4
				c0.9-1,1.4-2.3,1.3-3.6c0.1-1.3-0.4-2.6-1.3-3.6c-0.9-0.9-2.1-1.4-3.4-1.4c-1.3,0-2.5,0.5-3.4,1.4c-0.9,1-1.4,2.3-1.3,3.6
				c-0.1,1.3,0.4,2.6,1.3,3.6c0.9,0.9,2.1,1.4,3.4,1.4C133.1,38.8,134.3,38.3,135.2,37.4z"/>
			<path class="st1" d="M144.6,19.8h3.7v22h-3.7V19.8z"/>
			<path class="st1" d="M154,22.7c-0.9-0.8-0.9-2.2-0.1-3.1c0,0,0,0,0.1-0.1c0.5-0.4,1.1-0.7,1.7-0.6c0.6,0,1.2,0.2,1.7,0.6
				c0.5,0.4,0.7,0.9,0.7,1.5c0,0.6-0.2,1.2-0.7,1.6c-0.5,0.4-1.1,0.7-1.7,0.7C155.1,23.3,154.5,23.1,154,22.7z M153.8,25.9h3.7v15.8
				h-3.7V25.9z"/>
			<path class="st1" d="M172.7,40.9c-0.5,0.4-1,0.6-1.6,0.8c-0.7,0.2-1.3,0.3-2,0.3c-1.5,0.1-2.9-0.4-4-1.4c-1-1.1-1.5-2.5-1.4-4V29
				h-2.6v-3h2.6v-3.6h3.7V26h4.2v3h-4.2v7.5c0,0.6,0.2,1.3,0.6,1.8c0.4,0.4,1,0.6,1.6,0.6c0.7,0,1.5-0.2,2.1-0.7L172.7,40.9z"/>
			<path class="st1" d="M190.3,27.5c1.3,1.4,2,3.3,1.8,5.2v9.1h-3.7v-8.6c0.1-1.1-0.3-2.3-1-3.1c-0.7-0.7-1.7-1.1-2.8-1
				c-1.2-0.1-2.4,0.4-3.2,1.2c-0.8,1-1.3,2.3-1.2,3.5v8h-3.7v-22h3.7v8c0.6-0.7,1.4-1.2,2.3-1.5c1-0.4,2-0.5,3-0.5
				C187.2,25.7,188.9,26.3,190.3,27.5z"/>
		</g>
	</g>
	<g id="Ideograph">
		<g>
			<g>
				<defs>
					<polygon id="SVGID_1_" points="30,30 30,16 16,16 16,48 24,48 32,32 					"/>
				</defs>
				<clipPath id="SVGID_2_">
					<use xlink:href="#SVGID_1_"  style="overflow:visible;"/>
				</clipPath>
				<g class="st2">
					<path class="st0" d="M32,20c6.6,0,12,5.4,12,12s-5.4,12-12,12s-12-5.4-12-12S25.4,20,32,20 M32,16c-8.8,0-16,7.2-16,16
						s7.2,16,16,16s16-7.2,16-16S40.8,16,32,16z"/>
				</g>
			</g>
			<g>
				<defs>
					<polygon id="SVGID_3_" points="32,32 34,34 34,48 48,48 48,16 40,16 					"/>
				</defs>
				<clipPath id="SVGID_4_">
					<use xlink:href="#SVGID_3_"  style="overflow:visible;"/>
				</clipPath>
				<g class="st3">
					<path class="st1" d="M32,20c6.6,0,12,5.4,12,12s-5.4,12-12,12s-12-5.4-12-12S25.4,20,32,20 M32,16c-8.8,0-16,7.2-16,16
						s7.2,16,16,16s16-7.2,16-16S40.8,16,32,16z"/>
				</g>
			</g>
			<g>
				<defs>
					<path id="SVGID_5_" d="M32,16c-8.8,0-16,7.2-16,16s7.2,16,16,16s16-7.2,16-16S40.8,16,32,16z M32,40c-4.4,0-8-3.6-8-8
						s3.6-8,8-8s8,3.6,8,8S36.4,40,32,40z"/>
				</defs>
				<clipPath id="SVGID_6_">
					<use xlink:href="#SVGID_5_"  style="overflow:visible;"/>
				</clipPath>
				<g class="st4">
					<g>
						<rect x="32" y="34" class="st1" width="4" height="14"/>
						<rect x="28" y="16" class="st0" width="4" height="14"/>
					</g>
				</g>
			</g>
		</g>
	</g>
</g>
</svg>
