<?xml version="1.0" encoding="utf-8"?>
<!-- Generator: Adobe Illustrator 24.2.2, SVG Export Plug-In . SVG Version: 6.00 Build 0)  -->
<svg version="1.1" id="Elements" xmlns="http://www.w3.org/2000/svg" xmlns:xlink="http://www.w3.org/1999/xlink" x="0px" y="0px"
	 viewBox="0 0 288 32" style="enable-background:new 0 0 288 32;" xml:space="preserve">
<style type="text/css">
	.st0{fill:#826A3E;}
	.st1{fill:#111111;}
	.st2{clip-path:url(#SVGID_2_);}
	.st3{clip-path:url(#SVGID_4_);}
	.st4{clip-path:url(#SVGID_6_);}
</style>
<g id="Color">
	<g id="Combined">
		<g>
			<path class="st0" d="M196.9,24.9c-2.8-1.5-4.6-4.4-4.6-7.6c0-1.6,0.4-3.1,1.2-4.5c0.8-1.3,2-2.4,3.3-3.1c1.5-0.8,3.1-1.2,4.8-1.1
				c3.1,0,5.4,1,7,2.9l-2.4,2.3c-1.1-1.3-2.7-2-4.4-2c-1,0-2,0.2-2.9,0.7c-0.8,0.5-1.5,1.2-2,2c-0.5,0.9-0.7,1.9-0.7,2.9
				c0,1,0.2,2,0.7,2.9c0.5,0.8,1.2,1.5,2,2c0.9,0.5,1.9,0.7,2.9,0.7c1.7,0,3.3-0.7,4.4-2l2.4,2.3c-1.8,2-4.3,3-7,2.9
				C200,26.1,198.3,25.7,196.9,24.9z"/>
			<path class="st0" d="M212.6,8.8h3.7v13.9h8.7v3h-12.5V8.8z"/>
			<path class="st0" d="M231.3,24.9c-2.8-1.5-4.6-4.4-4.6-7.6c-0.1-3.2,1.7-6.1,4.6-7.6c3-1.5,6.6-1.5,9.6,0
				c2.8,1.5,4.6,4.4,4.6,7.6c0.1,3.2-1.7,6.2-4.6,7.6C237.9,26.4,234.3,26.4,231.3,24.9L231.3,24.9z M238.9,22.1
				c0.8-0.5,1.5-1.2,2-2c0.9-1.8,0.9-4,0-5.8c-0.5-0.8-1.2-1.5-2-2c-0.9-0.5-1.9-0.7-2.9-0.7c-1,0-2,0.2-2.8,0.7
				c-0.8,0.5-1.5,1.2-2,2c-0.5,0.9-0.7,1.9-0.7,2.9c0,1,0.2,2,0.7,2.9c0.5,0.8,1.2,1.5,2,2c0.9,0.5,1.8,0.7,2.8,0.7
				C237.1,22.9,238.1,22.6,238.9,22.1L238.9,22.1z"/>
			<path class="st0" d="M251.6,24c-1.4-1.5-2.2-3.5-2.1-5.5V8.8h3.7v9.6c-0.1,1.2,0.3,2.4,1,3.4c0.8,0.8,1.9,1.2,3,1.2
				c1.1,0.1,2.2-0.3,2.9-1.1c0.7-1,1.1-2.2,1-3.4V8.8h3.7v9.7c0.1,2-0.6,4-2,5.5C259.7,26.7,255,26.7,251.6,24z"/>
			<path class="st0" d="M270.6,8.8h7.7c1.7,0,3.4,0.3,5,1c1.4,0.6,2.5,1.7,3.3,2.9c0.8,1.4,1.2,2.9,1.2,4.5c0,1.6-0.4,3.1-1.2,4.5
				c-0.8,1.3-1.9,2.3-3.3,3c-1.6,0.7-3.3,1-5,1h-7.7V8.8z M278.2,22.7c1.6,0.1,3.1-0.4,4.3-1.4c1.1-1.1,1.6-2.5,1.5-4
				c0.1-1.5-0.5-3-1.5-4c-1.2-1-2.7-1.5-4.3-1.4h-3.8v10.9L278.2,22.7z"/>
		</g>
		<g>
			<path class="st1" d="M53.5,24.7c-1.7-0.9-3-2.2-4-3.8c-1-1.7-1.5-3.5-1.5-5.5c0-1.9,0.5-3.8,1.5-5.5c1-1.6,2.3-2.9,4-3.8
				c3.6-1.8,7.8-1.8,11.4,0c1.7,0.9,3,2.2,4,3.8c1,1.7,1.5,3.6,1.4,5.5c0,1.9-0.5,3.8-1.4,5.5c-1,1.6-2.3,2.9-4,3.8
				C61.3,26.5,57.1,26.5,53.5,24.7z M63,21.7c1.1-0.6,2-1.5,2.6-2.6c0.7-1.1,1-2.4,1-3.8c0-1.3-0.3-2.6-1-3.8C65,10.5,64.1,9.6,63,9
				c-2.3-1.2-5.1-1.2-7.5,0c-1.1,0.6-2,1.5-2.6,2.6c-0.7,1.1-1,2.4-1,3.8c0,1.3,0.3,2.6,1,3.8c0.6,1.1,1.5,2,2.6,2.6
				C57.9,23,60.7,23,63,21.7L63,21.7z"/>
			<path class="st1" d="M87.8,10.8c1.2,0.7,2.2,1.6,2.9,2.8c0.7,1.3,1,2.8,1,4.2c0,1.5-0.3,2.9-1,4.3c-0.7,1.2-1.7,2.2-2.9,2.9
				c-1.3,0.7-2.7,1-4.1,1c-1.9,0.1-3.8-0.7-5.1-2.1v7.7h-3.7V9.9h3.5V12c0.6-0.7,1.4-1.3,2.3-1.7c1-0.4,2-0.6,3-0.6
				C85.1,9.7,86.5,10.1,87.8,10.8z M86.6,21.4c0.9-1,1.4-2.3,1.3-3.6c0.1-1.3-0.4-2.6-1.3-3.6c-0.9-0.9-2.1-1.4-3.4-1.4
				c-0.8,0-1.7,0.2-2.4,0.6c-0.7,0.4-1.3,1-1.7,1.7c-0.4,0.8-0.6,1.7-0.6,2.6c0,0.9,0.2,1.8,0.6,2.6c0.4,0.7,1,1.3,1.7,1.7
				c0.7,0.4,1.6,0.6,2.4,0.6C84.5,22.8,85.7,22.3,86.6,21.4z"/>
			<path class="st1" d="M105.4,24.9c-0.5,0.4-1,0.6-1.6,0.8c-0.7,0.2-1.3,0.3-2,0.3c-1.5,0.1-2.9-0.4-4-1.4c-1-1.1-1.5-2.5-1.4-4V13
				h-2.6v-3h2.6V6.4h3.7V10h4.2v3h-4.2v7.5c0,0.6,0.2,1.3,0.6,1.8c0.4,0.4,1,0.6,1.6,0.6c0.7,0,1.5-0.2,2.1-0.6L105.4,24.9z"/>
			<path class="st1" d="M111.5,24.9c-1.2-0.7-2.3-1.7-3-2.9c-0.7-1.3-1.1-2.7-1.1-4.2c0-1.5,0.3-2.9,1.1-4.2c0.7-1.2,1.8-2.2,3-2.9
				c2.7-1.4,5.9-1.4,8.7,0c1.2,0.7,2.3,1.7,3,2.9c0.7,1.3,1.1,2.7,1.1,4.2c0,1.5-0.3,2.9-1.1,4.2c-0.7,1.2-1.7,2.2-3,2.9
				C117.5,26.3,114.2,26.3,111.5,24.9L111.5,24.9z M119.2,21.4c0.9-1,1.4-2.3,1.3-3.6c0.1-1.3-0.4-2.6-1.3-3.6
				c-0.9-0.9-2.1-1.4-3.4-1.4c-1.3,0-2.5,0.5-3.4,1.4c-0.9,1-1.4,2.3-1.3,3.6c-0.1,1.3,0.4,2.6,1.3,3.6c0.9,0.9,2.1,1.4,3.4,1.4
				C117.1,22.8,118.3,22.3,119.2,21.4z"/>
			<path class="st1" d="M128.6,3.8h3.7v22h-3.7V3.8z"/>
			<path class="st1" d="M138,6.7c-0.4-0.4-0.7-1-0.7-1.6c0-0.6,0.2-1.2,0.7-1.6c0.5-0.4,1.1-0.7,1.7-0.6c0.6,0,1.2,0.2,1.7,0.6
				c0.5,0.4,0.7,0.9,0.7,1.5c0,0.6-0.2,1.2-0.7,1.6c-0.5,0.4-1.1,0.7-1.7,0.7C139.1,7.3,138.5,7.1,138,6.7z M137.8,9.9h3.7v15.8
				h-3.7V9.9z"/>
			<path class="st1" d="M156.7,24.9c-0.5,0.4-1,0.6-1.6,0.8c-0.7,0.2-1.3,0.3-2,0.3c-1.5,0.1-2.9-0.4-4-1.4c-1-1.1-1.5-2.5-1.4-4V13
				h-2.6v-3h2.6V6.4h3.7V10h4.2v3h-4.2v7.5c0,0.6,0.2,1.3,0.6,1.8c0.4,0.4,1,0.6,1.6,0.6c0.7,0,1.5-0.2,2.1-0.6L156.7,24.9z"/>
			<path class="st1" d="M174.3,11.5c1.3,1.4,2,3.3,1.8,5.2v9.1h-3.7v-8.6c0.1-1.1-0.3-2.3-1-3.1c-0.7-0.7-1.8-1.1-2.8-1
				c-1.2-0.1-2.4,0.4-3.2,1.2c-0.8,1-1.3,2.3-1.2,3.5v8h-3.7v-22h3.7v8c0.6-0.7,1.4-1.2,2.3-1.5c1-0.4,2-0.5,3-0.5
				C171.2,9.7,172.9,10.3,174.3,11.5z"/>
		</g>
	</g>
	<g id="Ideograph">
		<g>
			<g>
				<defs>
					<polygon id="SVGID_1_" points="14,14 14,0 0,0 0,32 8,32 16,16 					"/>
				</defs>
				<clipPath id="SVGID_2_">
					<use xlink:href="#SVGID_1_"  style="overflow:visible;"/>
				</clipPath>
				<g class="st2">
					<path class="st0" d="M16,4c6.6,0,12,5.4,12,12s-5.4,12-12,12S4,22.6,4,16S9.4,4,16,4 M16,0C7.2,0,0,7.2,0,16s7.2,16,16,16
						s16-7.2,16-16S24.8,0,16,0z"/>
				</g>
			</g>
			<g>
				<defs>
					<polygon id="SVGID_3_" points="16,16 18,18 18,32 32,32 32,0 24,0 					"/>
				</defs>
				<clipPath id="SVGID_4_">
					<use xlink:href="#SVGID_3_"  style="overflow:visible;"/>
				</clipPath>
				<g class="st3">
					<path class="st1" d="M16,4c6.6,0,12,5.4,12,12s-5.4,12-12,12S4,22.6,4,16S9.4,4,16,4 M16,0C7.2,0,0,7.2,0,16s7.2,16,16,16
						s16-7.2,16-16S24.8,0,16,0z"/>
				</g>
			</g>
			<g>
				<defs>
					<path id="SVGID_5_" d="M16,0C7.2,0,0,7.2,0,16s7.2,16,16,16s16-7.2,16-16S24.8,0,16,0z M16,24c-4.4,0-8-3.6-8-8s3.6-8,8-8
						s8,3.6,8,8S20.4,24,16,24z"/>
				</defs>
				<clipPath id="SVGID_6_">
					<use xlink:href="#SVGID_5_"  style="overflow:visible;"/>
				</clipPath>
				<g class="st4">
					<g>
						<rect x="16" y="18" class="st1" width="4" height="14"/>
						<rect x="12" class="st0" width="4" height="14"/>
					</g>
				</g>
			</g>
		</g>
	</g>
</g>
</svg>
